<svg xmlns="http://www.w3.org/2000/svg" xmlns:xlink="http://www.w3.org/1999/xlink" style="width: 100%; height: 100%" viewBox="0 0 30 30" preserveAspectRatio="none" width="30" height="30"><defs><svg width="30" height="30" viewBox="0 0 30 30" fill="none" xmlns="http://www.w3.org/2000/svg" id="svg1297029836_1527">
<g clip-path="url(#svg1297029836_1527_clip0_7602_693)" fill="none">
<path d="M14.9708 29.4706C6.97893 29.4706 0.500231 22.9919 0.500231 15C0.500231 7.00812 6.97893 0.529419 14.9708 0.529419C22.9627 0.529419 29.4414 7.00812 29.4414 15C29.4414 22.9919 22.9627 29.4706 14.9708 29.4706Z" fill="black"></path>
<path d="M9.62532 15.5251C9.73611 15.1937 9.73947 14.8359 9.63493 14.5025C9.01315 12.7327 8.34784 10.9782 7.68932 9.22133C7.50674 8.73465 7.48752 8.28753 7.90129 7.90372C8.29697 7.4956 8.74917 7.55213 9.22851 7.73132C10.9853 8.38928 12.7405 9.05402 14.5086 9.68145C14.805 9.77983 15.1251 9.78161 15.4226 9.68654C17.1698 9.06476 18.9046 8.40962 20.6394 7.75506C21.156 7.56061 21.6489 7.48599 22.0757 7.92463C22.4815 8.34349 22.4109 8.81944 22.2238 9.31573C21.5698 11.0511 20.9141 12.7858 20.2929 14.5331C20.1925 14.8297 20.1892 15.1506 20.2832 15.4493C20.8966 17.1813 21.5466 18.9008 22.1949 20.6209C22.3934 21.1483 22.5143 21.6446 22.0418 22.1041C21.5896 22.5444 21.108 22.424 20.6026 22.2347C18.882 21.5886 17.1636 20.9346 15.4316 20.323C15.134 20.2258 14.8131 20.2258 14.5154 20.323C12.7682 20.9448 11.0339 21.5993 9.2986 22.2533C8.78252 22.4484 8.29075 22.5235 7.86285 22.0838C7.45586 21.6638 7.52765 21.1895 7.71475 20.6932C8.36367 18.9715 9.01597 17.2559 9.62532 15.5251Z" fill="#FFFFFF"></path>
</g>
<defs>
<clipPath id="svg1297029836_1527_clip0_7602_693">
<rect width="28.9412" height="28.9412" fill="white" transform="matrix(-1 0 0 1 29.4414 0.529419)"></rect>
</clipPath>
</defs>
</svg></defs><use href="#svg1297029836_1527"></use></svg>