<svg xmlns="http://www.w3.org/2000/svg" xmlns:xlink="http://www.w3.org/1999/xlink" style="width: 100%; height: 100%" viewBox="0 0 33 34" preserveAspectRatio="none" width="33" height="34"><defs><svg width="33" height="34" viewBox="0 0 33 34" fill="none" xmlns="http://www.w3.org/2000/svg" id="svg-1476961130_1546">
<g clip-path="url(#svg-1476961130_1546_clip0_7602_726)" fill="none">
<path d="M16.3332 33.4723C7.31252 33.4723 -0.000164032 26.1596 -0.000164032 17.139C-0.000164032 8.11835 7.31252 0.805664 16.3332 0.805664C25.3538 0.805664 32.6665 8.11835 32.6665 17.139C32.6665 26.1596 25.3538 33.4723 16.3332 33.4723Z" fill="#FFFFFF"></path>
<path d="M10.3003 17.7316C10.4253 17.3576 10.4291 16.9536 10.3111 16.5774C9.60929 14.5797 8.85834 12.5993 8.11505 10.6163C7.90897 10.067 7.88728 9.56233 8.35431 9.12912C8.80092 8.66847 9.31134 8.73227 9.85238 8.93452C11.8353 9.67718 13.8164 10.4275 15.8121 11.1357C16.1468 11.2467 16.508 11.2487 16.8438 11.1414C18.8159 10.4396 20.774 9.70015 22.7321 8.96132C23.3153 8.74184 23.8716 8.65762 24.3533 9.15272C24.8114 9.6255 24.7317 10.1627 24.5205 10.7229C23.7823 12.6816 23.0422 14.6397 22.341 16.6118C22.2277 16.9467 22.2239 17.3089 22.3302 17.6461C23.0224 19.601 23.7561 21.5418 24.4879 23.4833C24.7119 24.0786 24.8484 24.6388 24.315 25.1575C23.8046 25.6545 23.261 25.5186 22.6906 25.3049C20.7485 24.5756 18.8089 23.8374 16.854 23.1471C16.518 23.0374 16.1558 23.0374 15.8198 23.1471C13.8477 23.8489 11.8902 24.5877 9.93149 25.3259C9.34898 25.546 8.7939 25.6309 8.31092 25.1345C7.85155 24.6605 7.93258 24.1252 8.14376 23.565C8.87621 21.6216 9.61248 19.6852 10.3003 17.7316Z" fill="#131518"></path>
</g>
<defs>
<clipPath id="svg-1476961130_1546_clip0_7602_726">
<rect width="32.6667" height="32.6667" fill="white" transform="matrix(-1 0 0 1 32.6665 0.805664)"></rect>
</clipPath>
</defs>
</svg></defs><use href="#svg-1476961130_1546"></use></svg>